<svg id="Layer_1" data-name="Layer 1" xmlns="http://www.w3.org/2000/svg" xmlns:xlink="http://www.w3.org/1999/xlink" viewBox="0 0 156 85"><defs><style>.cls-1{fill:url(#linear-gradient);}.cls-2{fill:url(#linear-gradient-2);}.cls-3{fill:url(#linear-gradient-3);}.cls-4{fill:#313131;}</style><linearGradient id="linear-gradient" x1="86" x2="86" y2="64" gradientUnits="userSpaceOnUse"><stop offset="0" stop-color="#f9a86b"/><stop offset="1" stop-color="#f55d9b"/></linearGradient><linearGradient id="linear-gradient-2" x1="100" y1="16" x2="100" y2="64" gradientUnits="userSpaceOnUse"><stop offset="0" stop-color="#36e39b"/><stop offset="1" stop-color="#26c8b7"/></linearGradient><linearGradient id="linear-gradient-3" x1="114" y1="64" x2="114" y2="8" gradientUnits="userSpaceOnUse"><stop offset="0" stop-color="#48b4f5"/><stop offset="1" stop-color="#8657f8"/></linearGradient></defs><title>Artboard 5</title><path class="cls-1" d="M82,0h8V64H82Z"/><path class="cls-2" d="M96,16h8V64H96Z"/><path class="cls-3" d="M110,8h8V64h-8Z"/><path class="cls-4" d="M68,32v2.16a16,16,0,1,0,0,27.68V64h8V32ZM60,56a8,8,0,1,1,8-8A8,8,0,0,1,60,56Z"/><path class="cls-4" d="M156,32h-8V48a8,8,0,0,1-16,0V32h-8V48a16,16,0,0,0,24,13.84V69a8,8,0,0,1-16,0h-8a16,16,0,1,0,32,0V49h-.05c0-.33.05-.66.05-1Z"/><path class="cls-4" d="M32.27,49.46a13,13,0,1,1,0-12.92l7.58-2.76a21,21,0,1,0,0,18.43Z"/></svg>